<?xml version="1.0" encoding="UTF-8" standalone="no"?>
<svg
   xmlns:dc="http://purl.org/dc/elements/1.1/"
   xmlns:cc="http://creativecommons.org/ns#"
   xmlns:rdf="http://www.w3.org/1999/02/22-rdf-syntax-ns#"
   xmlns:svg="http://www.w3.org/2000/svg"
   xmlns="http://www.w3.org/2000/svg"
   xmlns:sodipodi="http://sodipodi.sourceforge.net/DTD/sodipodi-0.dtd"
   xmlns:inkscape="http://www.inkscape.org/namespaces/inkscape"
   width="46.30209mm"
   height="46.302086mm"
   viewBox="0 0 46.30209 46.302086"
   version="1.1"
   id="svg8"
   inkscape:version="1.0.2 (e86c870879, 2021-01-15, custom)"
   sodipodi:docname="toilet icon.svg">
  <defs
     id="defs2" />
  <sodipodi:namedview
     id="base"
     pagecolor="#ffffff"
     bordercolor="#666666"
     borderopacity="1.0"
     inkscape:pageopacity="0.0"
     inkscape:pageshadow="2"
     inkscape:zoom="2.1028423"
     inkscape:cx="-12.79475"
     inkscape:cy="126.12626"
     inkscape:document-units="mm"
     inkscape:current-layer="layer1"
     inkscape:document-rotation="0"
     showgrid="false"
     fit-margin-top="0"
     fit-margin-left="0"
     fit-margin-right="0"
     fit-margin-bottom="0"
     inkscape:window-width="1920"
     inkscape:window-height="1057"
     inkscape:window-x="-8"
     inkscape:window-y="-8"
     inkscape:window-maximized="1" />
  <metadata
     id="metadata5">
    <rdf:RDF>
      <cc:Work
         rdf:about="">
        <dc:format>image/svg+xml</dc:format>
        <dc:type
           rdf:resource="http://purl.org/dc/dcmitype/StillImage" />
        <dc:title></dc:title>
      </cc:Work>
    </rdf:RDF>
  </metadata>
  <g
     inkscape:label="Layer 1"
     inkscape:groupmode="layer"
     id="layer1"
     transform="translate(-123.30552,-72.725193)">
    <g
       id="g896">
      <path
         id="path833"
         style="fill:#ababab;fill-opacity:1;stroke:none;stroke-width:3.49999;stroke-linecap:round;stroke-linejoin:round;stroke-opacity:0.921569;paint-order:stroke fill markers"
         d="m 146.45656,72.725193 a 23.151205,23.151205 0 0 0 -23.15104,23.151042 23.151205,23.151205 0 0 0 23.15104,23.151045 23.151205,23.151205 0 0 0 23.15105,-23.151045 23.151205,23.151205 0 0 0 -23.15105,-23.151042 z m 4.04472,2.995166 c 1.64181,2e-6 2.97243,5.190529 2.97243,11.593607 0,4.357905 -0.13764,7.923094 -0.74311,9.75703 0.26137,5.837104 0.0466,16.993454 -0.32711,16.713194 l -6.70864,-0.0124 c -2.9325,-8.33073 -7.04963,-10.64458 -8.69042,-12.47366 -1.6408,-1.829084 -2.65565,-4.355764 -2.65565,-7.146854 h 14.16916 c -0.58742,-1.849816 -0.98961,-4.197829 -0.98961,-6.83731 0,-6.403086 1.33113,-11.593613 2.97295,-11.593607 z" />
      <path
         style="fill:#ffffff;fill-opacity:1;stroke:none;stroke-width:1.66441;stroke-linecap:round;stroke-linejoin:round;stroke-miterlimit:4;stroke-dasharray:none;stroke-opacity:0.921569;paint-order:stroke fill markers"
         d="m 145.63284,113.68511 c -0.03,-0.0519 -0.2674,-0.63226 -0.52753,-1.28968 -0.95724,-2.41919 -2.20973,-4.6454 -3.64284,-6.4749 -0.43579,-0.55632 -1.72136,-1.91741 -2.85681,-3.02464 -1.23002,-1.19944 -2.27953,-2.34372 -2.59653,-2.83099 -0.94989,-1.460097 -1.65374,-3.66293 -1.65835,-5.190147 l -0.002,-0.723477 h 7.0545 c 6.65936,0 7.05087,-0.01233 6.98973,-0.220186 -0.65452,-2.225382 -0.87236,-3.948343 -0.87097,-6.888742 0.002,-3.439448 0.29627,-6.025235 0.94625,-8.304239 l 0.28708,-1.006573 h 1.69317 1.69317 l 0.2767,0.883494 c 0.40243,1.284968 0.77975,3.72431 0.9435,6.099614 0.24227,3.514286 -0.0498,10.235539 -0.51376,11.823089 -0.0818,0.279934 -0.0999,1.902725 -0.0504,4.529577 0.0717,3.80294 -0.0987,11.12794 -0.28471,12.24033 l -0.0789,0.47183 h -3.3733 c -1.85532,0 -3.39785,-0.0425 -3.42786,-0.0944 z"
         id="path883" />
    </g>
    <rect
       style="fill:#ffffff;fill-opacity:1;stroke:none;stroke-width:3.49999;stroke-linecap:round;stroke-linejoin:round;stroke-miterlimit:4;stroke-dasharray:none;stroke-opacity:0.921569;paint-order:stroke fill markers"
       id="rect898"
       width="37.243244"
       height="28.43572"
       x="50.328896"
       y="71.970261" />
  </g>
</svg>
